<?xml version="1.0" encoding="utf-8"?>
<!-- Generator: Adobe Illustrator 25.2.0, SVG Export Plug-In . SVG Version: 6.00 Build 0)  -->
<svg version="1.1" id="Capa_1" xmlns="http://www.w3.org/2000/svg" xmlns:xlink="http://www.w3.org/1999/xlink" x="0px" y="0px"
	 viewBox="0 0 800 800" style="enable-background:new 0 0 800 800;" xml:space="preserve">
<style type="text/css">
	.st0{fill:none;stroke:#000000;stroke-width:15;stroke-miterlimit:10;}
</style>
<g>
	<g>
		<path d="M763,171.3c-15.7-67.9-61.6-117.6-132.8-144C582.7,9.8,467.2-6.2,416.4,53.5C252.4-43.6,166,9.3,107.9,71.8
			C-20.5,209.6,38.3,348.4,93.1,408.7c39.7,43.7,51.1,68.9,57.6,97.7c1.4,6.3,4.7,25.1,4.9,29.1c10.1,240.1,92,260.7,111.6,262.1
			c5.7,1.6,11.3,2.4,16.8,2.4c10,0,19.4-2.7,28-7.9c40.7-24.9,53.2-102.5,64.2-170.8c4-24.7,7.7-48.1,12.1-61.6
			c7.6-23.5,13.8-28.9,13.8-29.7c5.5,2.4,14.7,20,15.7,26.9c1.5,10.4,2.6,23.8,3.8,38.8c6.3,77.1,15.6,193.4,97.7,201.8
			c5.8,1.2,19.7,2.5,36.7-7.7c38.7-23.5,67.3-90.7,85-199.8l2.7-17.5c6.4-43.7,15.2-103.7,51.3-141.7
			C736.5,387.3,786.9,274.5,763,171.3z M670.5,407.7c-43.5,45.8-53.6,114.5-60.3,160.1l-2.6,16.9c-20.4,125.5-50.8,163.4-67,174.9
			c-8.6,6-13.9,5.2-13.3,5.4l-3.8-0.8c-55-4.8-63-104.8-68.4-171.1c-1.3-15.9-2.5-30.1-4-41c-1.6-11-17.3-53.2-46-55.6
			c-30.9-2.1-44.4,39.1-48.8,52.9c-5.2,16.1-9,39.4-13.3,66.6c-8.4,52-21.1,130.6-48.6,147.5c-3.7,2.3-9.3,4.7-19.2,1.4l-5.1-0.8
			h-0.4c-0.8,0-71-8.5-80.3-230c-0.3-7.7-4.4-29.5-5.6-35c-8.8-39.5-26.6-70.1-65.5-112.9c-13-14.3-122.9-143.8,14.5-291.3
			c63.1-67.8,156.3-113.7,367.9,60c7.2,5.9,17.7,4.9,23.7-2.3c5.9-7.2,4.9-17.7-2.3-23.7c-27.1-22.2-52.6-41.1-76.4-56.9
			c39-39.1,131-28.5,173.1-12.9c61,22.5,98.5,62.9,111.7,120C750.4,266.1,708.5,367.8,670.5,407.7z"/>
	</g>
</g>
<path class="st0" d="M184.3,140l9.9,45.9c0.1,0.3,0.3,0.5,0.5,0.5l45.9,9.9c0.7,0.2,0.7,1.2,0,1.3l-45.9,9.9
	c-0.3,0.1-0.5,0.3-0.5,0.5l-9.9,45.9c-0.2,0.7-1.2,0.7-1.3,0l-9.9-45.9c-0.1-0.3-0.3-0.5-0.5-0.5l-45.9-9.9c-0.7-0.2-0.7-1.2,0-1.3
	l45.9-9.9c0.3-0.1,0.5-0.3,0.5-0.5L183,140C183.1,139.3,184.1,139.3,184.3,140z"/>
<path class="st0" d="M728.7,498.5l9.9,45.9c0.1,0.3,0.3,0.5,0.5,0.5l45.9,9.9c0.7,0.2,0.7,1.2,0,1.3L739,566
	c-0.3,0.1-0.5,0.3-0.5,0.5l-9.9,45.9c-0.2,0.7-1.2,0.7-1.3,0l-9.9-45.9c-0.1-0.3-0.3-0.5-0.5-0.5l-45.9-9.9c-0.7-0.2-0.7-1.2,0-1.3
	L717,545c0.3-0.1,0.5-0.3,0.5-0.5l9.9-45.9C727.5,497.8,728.5,497.8,728.7,498.5z"/>
</svg>
