<?xml version="1.0" encoding="utf-8"?>
<!-- Generator: Adobe Illustrator 25.2.0, SVG Export Plug-In . SVG Version: 6.00 Build 0)  -->
<svg version="1.1" id="Layer_1" xmlns="http://www.w3.org/2000/svg" xmlns:xlink="http://www.w3.org/1999/xlink" x="0px" y="0px"
	 viewBox="0 0 800 800" style="enable-background:new 0 0 800 800;" xml:space="preserve">
<path d="M600,460.5v56.1c0,82.8-67.2,150-150,150s-150-67.2-150-150V497c96.1-16.3,166.5-99.5,166.7-197V100
	c0-18.4-14.9-33.3-33.3-33.3h-66.7c-18.4,0-33.3,14.9-33.3,33.3s14.9,33.3,33.3,33.3H400V300c0,73.6-59.7,133.3-133.3,133.3
	S133.3,373.6,133.3,300V133.3h33.3c18.4,0,33.3-14.9,33.3-33.3s-14.9-33.3-33.3-33.3H100c-18.4,0-33.3,14.9-33.3,33.3v200
	c0.2,97.5,70.5,180.7,166.7,197v19.7c0,119.7,97,216.7,216.7,216.7s216.7-97,216.7-216.7v-56.1L600,460.5z"/>
<g>
	<path d="M634.9,545L527,437.2c-17.2-17.2-26.7-40.2-26.7-64.5c0-24.4,9.5-47.3,26.7-64.5c17.2-17.2,40.1-26.7,64.5-26.7
		c15.4,0,30.2,3.8,43.3,10.9c13.2-7.1,27.9-10.9,43.3-10.9c24.4,0,47.3,9.5,64.5,26.7l0,0c0,0,0,0,0,0
		c17.2,17.2,26.7,40.2,26.7,64.5c0,24.4-9.5,47.3-26.7,64.5L634.9,545z M591.6,341.4c-8.3,0-16.2,3.3-22.1,9.2
		c-5.9,5.9-9.2,13.8-9.2,22.1s3.3,16.2,9.2,22.1l65.4,65.4l65.4-65.4c5.9-5.9,9.2-13.8,9.2-22.1s-3.3-16.2-9.2-22.1l0,0
		c-5.9-5.9-13.8-9.2-22.1-9.2c-8.3,0-16.2,3.3-22.1,9.2l-21.2,21.2l-21.2-21.2C607.8,344.7,599.9,341.4,591.6,341.4z"/>
</g>
</svg>
