<?xml version="1.0" encoding="utf-8"?>
<!-- Generator: Adobe Illustrator 25.2.0, SVG Export Plug-In . SVG Version: 6.00 Build 0)  -->
<svg version="1.1" id="_x32_" xmlns="http://www.w3.org/2000/svg" xmlns:xlink="http://www.w3.org/1999/xlink" x="0px" y="0px"
	 viewBox="0 0 800 800" style="enable-background:new 0 0 800 800;" xml:space="preserve">
<path d="M581.7,704.6c-7.2,0-13.7,3.6-19,8.3c-9.3,8.4-16.6,18.9-28.1,24.6c-14.1,7-31.1,11.7-49.4,11.7
	c-21.4-0.1-44.8-6.1-69.8-23.4c-24-16.7-36.4-30.1-44.7-43.6c-6.2-10.2-10.4-21.1-14.4-35.2c-6-21-11.1-48.7-22.3-84.9
	c-11.2-36.2-28.6-80.8-59.1-137c-24.4-44.6-45.3-111.2-45.2-174.2c0-26.4,3.6-52.2,11.5-75.8c8-23.6,20.2-45,38.1-63.5
	c42.2-43.6,90.8-60.7,137-60.9c33.5,0,65.6,9.3,91.6,25.1c19.3,11.6,35.2,26.7,46.2,43.5c6.7,10.2,19.7,14.1,31,9.4
	c14.7-6.1,20.2-24.1,11.5-37.4c-15.6-23.9-37.3-43.9-62.4-59.1C500,11.8,459.2,0,416.3,0C357.2-0.1,294,23.1,242.7,76.4
	c-23.5,24.3-39.6,52.7-49.6,82.5c-10.1,29.8-14.2,61.1-14.2,92c0.1,74,23.2,146.4,51.3,198.5c25.8,47.5,41.2,85.2,51.6,116.3
	c7.7,23.4,12.7,43.1,17,61.1c6.5,26.7,11.5,50.3,24.1,74c6.2,11.8,14.4,23.2,24.8,34.2c10.4,11,23.1,21.6,38.7,32.5
	c33,23,67.5,32.6,98.9,32.5c17.3,0,34.1-3,50.5-8.1c15.7-4.8,30.6-12.7,43.3-23c5.8-4.7,11.2-10,15.9-15.8c5.2-6.4,9.9-13.8,10.6-22
	c0.7-7.8-2.5-15.9-8.5-21.1C592.9,706.4,587.3,704.5,581.7,704.6z"/>
<path d="M465.1,401.6c-17.8,3.3-34,13.5-45.2,28.7c-11.2,15.2-17.5,35.1-17.5,57.8c0,12.2,1.8,25.2,5.4,38.9
	c6.3,23.6,17.2,43,31.6,56.7c14.4,13.8,32.7,21.8,51.8,21.8c19.8,0.1,39.5-8.6,55.3-24.2c10.5-10.2,17-23.3,20.8-37.2
	c3.8-14,5.2-29.1,5.2-45.1c0-26.8-3.9-56.4-9.1-87c-5.1-30.6-11.5-62.2-16.8-92.3c-5.8-32.6-14.8-67.4-33.2-96
	c-9.2-14.3-20.9-27-36-36.2c-15-9.2-33.1-14.5-53.3-14.4c-1.5,0-3.1,0-4.6,0.1c-24.6,0.8-45.6,10-59.7,24.9
	c-14.3,14.9-21.6,34.1-24.4,53.9c-1.4,10.4,5.8,20.1,16.3,21.5c10.4,1.5,20.1-5.8,21.5-16.2v0c2-14.1,6.9-25.3,14.1-32.8
	c7.3-7.4,16.9-12.4,33.7-13.2l3.2-0.1c13.8,0,24.3,3.3,33.4,8.8c13.6,8.2,24.7,22.8,33.2,41.9c8.6,18.9,14.4,41.8,18.3,64.4
	c4.9,28.2,10.6,56.9,15.3,84.4c-12.9-6.9-27.3-10.6-42-10.6C476.7,400,470.9,400.5,465.1,401.6z M534,489.2c0,0.3,0.1,0.6,0.2,0.9
	c0.1,2.9,0.3,6,0.3,8.9c0,13.8-1.3,25.7-3.8,35c-2.6,9.3-6.2,15.7-10.6,20c-10.2,9.8-19.9,13.3-28.7,13.4c-8.5,0-17-3.3-25.5-11.2
	c-8.4-7.9-16.2-20.8-21.1-38.9c-2.9-10.9-4.1-20.6-4.1-29c0-15.9,4.2-27.3,10-35.1c5.8-7.8,13.2-12.2,21.6-13.9
	c3.5-0.7,6.9-1,10.3-1c12.6,0,24.4,4.4,33.5,12.7C525.1,459.1,532,471.3,534,489.2z"/>
</svg>
